<svg xmlns="http://www.w3.org/2000/svg" version="1.1" xmlns:xlink="http://www.w3.org/1999/xlink" xmlns:svgjs="http://svgjs.dev/svgjs" width="128" height="128" viewBox="0 0 128 128"><g transform="matrix(0.8046875,0,0,0.8046875,12.246271414416285,1.1518606496710504)"><svg viewBox="0 0 77 95" data-background-color="#ffffff" preserveAspectRatio="xMidYMid meet" height="157" width="128" xmlns="http://www.w3.org/2000/svg" xmlns:xlink="http://www.w3.org/1999/xlink"><g id="tight-bounds" transform="matrix(1,0,0,1,0.1896805931062744,-0.24049999999999727)"><svg viewBox="0 0 76.62063881378745 95.481" height="95.481" width="76.62063881378745"><g><svg viewBox="0 0 76.62063881378745 95.481" height="95.481" width="76.62063881378745"><g><svg viewBox="0 0 76.62063881378745 95.481" height="95.481" width="76.62063881378745"><g id="textblocktransform"><svg viewBox="0 0 76.62063881378745 95.481" height="95.481" width="76.62063881378745" id="textblock"><g><svg viewBox="0 0 76.62063881378745 95.481" height="95.481" width="76.62063881378745"><g><svg viewBox="0 0 76.62063881378745 95.481" height="95.481" width="76.62063881378745"><g><svg xmlns="http://www.w3.org/2000/svg" xmlns:xlink="http://www.w3.org/1999/xlink" version="1.1" x="0" y="0" viewBox="17 12 65.00007063098191 81" enable-background="new 0 0 100 100" xml:space="preserve" height="95.481" width="76.62063881378745" class="icon-icon-0" data-fill-palette-color="accent" id="icon-0"></svg></g></svg></g></svg></g></svg></g></svg></g></svg></g><defs></defs><mask id="516a4ba3-b07f-4519-8f8f-eded2605177f"><g id="SvgjsG1008"><svg viewBox="0 0 76.62063881378745 95.481" height="95.481" width="76.62063881378745"><g><svg viewBox="0 0 76.62063881378745 95.481" height="95.481" width="76.62063881378745"><g><svg viewBox="0 0 76.62063881378745 95.481" height="95.481" width="76.62063881378745"><g id="SvgjsG1007"><svg viewBox="0 0 76.62063881378745 95.481" height="95.481" width="76.62063881378745" id="SvgjsSvg1006"><g><svg viewBox="0 0 76.62063881378745 95.481" height="95.481" width="76.62063881378745"><g><svg viewBox="0 0 76.62063881378745 95.481" height="95.481" width="76.62063881378745"><g><svg xmlns="http://www.w3.org/2000/svg" xmlns:xlink="http://www.w3.org/1999/xlink" version="1.1" x="0" y="0" viewBox="17 12 65.00007063098191 81" enable-background="new 0 0 100 100" xml:space="preserve" height="95.481" width="76.62063881378745" class="icon-icon-0" data-fill-palette-color="accent" id="SvgjsSvg1005"><path d="M81.403 13.897C80.674 12.718 79.386 12 78 12H21c-2.209 0-4 1.791-4 4s1.791 4 4 4h50.528l-2 4H28c-1.386 0-2.674 0.718-3.403 1.897-0.729 1.179-0.795 2.651-0.175 3.892l6 12C31.1 43.144 32.485 44 34 44h26.528l-2 4H40c-1.386 0-2.674 0.718-3.403 1.897-0.729 1.179-0.795 2.651-0.175 3.892l6 12C43.1 67.144 44.485 68 46 68h3.202l-1.699 3.058C47.173 71.651 47 72.32 47 73v5.493h-4.376L50.999 93l8.377-14.507H55v-4.457l4.497-8.094c0.688-1.238 0.669-2.749-0.049-3.971S57.417 60 56 60h-7.528l-2-4H61c1.515 0 2.9-0.856 3.578-2.211l6-12c0.62-1.24 0.554-2.713-0.175-3.892C69.674 36.718 68.386 36 67 36H36.472l-2-4H72c1.515 0 2.9-0.856 3.578-2.211l6-12C82.198 16.549 82.131 15.076 81.403 13.897z" fill="white"></path></svg></g></svg></g></svg></g></svg></g></svg></g></svg></g><defs><mask></mask></defs></svg></g></mask><linearGradient x1="0.054" x2="0.941" y1="0.5" y2="0.5" id="93b80b6a-b5e8-4c7e-9f7e-cab19d065fad"><stop stop-color="#0f3054" offset="0"></stop><stop stop-color="#3b8dcb" offset="0.498"></stop><stop stop-color="#0f3054" offset="1"></stop></linearGradient><rect width="76.62063881378745" height="95.481" fill="url(#93b80b6a-b5e8-4c7e-9f7e-cab19d065fad)" mask="url(#516a4ba3-b07f-4519-8f8f-eded2605177f)" data-fill-palette-color="accent"></rect></svg><rect width="76.62063881378745" height="95.481" fill="none" stroke="none" visibility="hidden"></rect></g></svg></g></svg>