<?xml version="1.0" standalone="no"?>
<!DOCTYPE svg PUBLIC "-//W3C//DTD SVG 20010904//EN"
 "http://www.w3.org/TR/2001/REC-SVG-20010904/DTD/svg10.dtd">
<svg version="1.0" xmlns="http://www.w3.org/2000/svg"
 width="128.000000pt" height="128.000000pt" viewBox="0 0 128.000000 128.000000"
 preserveAspectRatio="xMidYMid meet">

<g transform="translate(0.000000,128.000000) scale(0.100000,-0.100000)"
fill="#000000" stroke="none">
<path d="M845 1267 c-22 -8 -58 -23 -80 -35 -43 -22 -295 -271 -295 -291 0
-16 20 -54 34 -63 6 -4 24 -8 40 -8 24 0 52 22 156 124 132 129 159 146 241
146 21 0 60 -12 90 -28 43 -22 59 -38 81 -81 32 -61 36 -122 13 -178 -9 -21
-68 -90 -135 -158 -99 -100 -120 -126 -120 -150 0 -17 4 -35 8 -41 9 -14 47
-34 63 -34 17 0 255 236 284 281 108 169 42 400 -139 489 -74 37 -177 48 -241
27z"/>
<path d="M592 687 c-184 -184 -212 -216 -212 -243 0 -38 27 -64 66 -64 25 0
62 33 242 213 184 184 212 216 212 243 0 38 -27 64 -66 64 -25 0 -62 -33 -242
-213z"/>
<path d="M202 688 c-68 -68 -135 -139 -147 -159 -112 -174 -39 -408 154 -497
45 -21 71 -26 136 -27 126 0 172 26 334 189 72 73 131 138 131 145 0 16 -20
54 -34 63 -6 4 -24 8 -40 8 -24 0 -52 -22 -156 -124 -132 -129 -159 -146 -241
-146 -21 0 -60 12 -90 28 -43 22 -59 38 -81 81 -32 61 -36 122 -13 178 9 21
68 90 135 158 99 100 120 126 120 150 0 17 -4 35 -8 41 -9 14 -47 34 -63 34
-7 0 -68 -55 -137 -122z"/>
</g>
</svg>
