<svg xmlns="http://www.w3.org/2000/svg" version="1.1" xmlns:xlink="http://www.w3.org/1999/xlink" xmlns:svgjs="http://svgjs.dev/svgjs" width="2000" height="1500" viewBox="0 0 2000 1500"><rect width="2000" height="1500" fill="#ffffff"></rect><g transform="matrix(0.75,0,0,0.75,249.090909090909,282.7536437246963)"><svg viewBox="0 0 396 247" data-background-color="#ffffff" preserveAspectRatio="xMidYMid meet" height="1247" width="2000" xmlns="http://www.w3.org/2000/svg" xmlns:xlink="http://www.w3.org/1999/xlink"><g id="tight-bounds" transform="matrix(1,0,0,1,0.2400000000000091,-0.09999999999999432)"><svg viewBox="0 0 395.52 247.2" height="247.2" width="395.52"><rect width="395.5199890136719" height="247.1999969482422" fill="url(#67ae624f-97d5-41fc-be67-b6873bfac05b)" mask="url(#f31ff3ad-b7e1-4304-bc0a-777d1173b4aa)" data-fill-palette-color="tertiary"></rect><g><svg></svg></g><g><svg viewBox="0 0 395.52 247.2" height="247.2" width="395.52"><g><path xmlns="http://www.w3.org/2000/svg" d="M55.039 247.2l26.403-45.732 1.896 0-25.403 44h279.65l-25.403-44 1.896 0 26.403 45.732zM197.76 0l26.403 45.732-1.896 0-24.507-42.448-24.507 42.448-1.896 0z" fill="url(#67ae624f-97d5-41fc-be67-b6873bfac05b)" fill-rule="nonzero" stroke="none" stroke-width="1" stroke-linecap="butt" stroke-linejoin="miter" stroke-miterlimit="10" stroke-dasharray="" stroke-dashoffset="0" font-family="none" font-weight="none" font-size="none" text-anchor="none" style="mix-blend-mode: normal" data-fill-palette-color="tertiary"></path></g><g transform="matrix(1,0,0,1,90.39331837604178,67.97999999999999)"><svg viewBox="0 0 214.73336324791643 111.24" height="111.24" width="214.73336324791643"><g><svg viewBox="0 0 395.52 204.8943123440177" height="111.24" width="214.73336324791643"><g transform="matrix(1,0,0,1,0,153.67170748750556)"><svg viewBox="0 0 395.52 51.22260485651215" height="51.22260485651215" width="395.52"><g id="textblocktransform"><svg viewBox="0 0 395.52 51.22260485651215" height="51.22260485651215" width="395.52" id="textblock"><g><svg viewBox="0 0 395.52 51.22260485651215" height="51.22260485651215" width="395.52"><g transform="matrix(1,0,0,1,0,0)"><svg width="395.52" viewBox="2.8400001525878906 -36.86000061035156 289.5400085449219 37.5" height="51.22260485651215" data-palette-color="url(#7b08ce6d-7789-47f9-99b3-6d5cdb2a9872)"></svg></g></svg></g></svg></g></svg></g><g transform="matrix(1,0,0,1,140.95343882716898,0)"><svg viewBox="0 0 113.613122345662 141.5792798233996" height="141.5792798233996" width="113.613122345662"><g><svg xmlns="http://www.w3.org/2000/svg" xmlns:xlink="http://www.w3.org/1999/xlink" version="1.1" x="0" y="0" viewBox="17 12 65.00006866455078 81" enable-background="new 0 0 100 100" xml:space="preserve" height="141.5792798233996" width="113.613122345662" class="icon-icon-0" data-fill-palette-color="accent" id="icon-0"></svg></g></svg></g><g></g></svg></g></svg></g></svg></g><defs></defs><mask id="2c616563-7b09-4d02-9a94-42ecc2623ca3"><g id="SvgjsG3087"><svg viewBox="0 0 395.52 247.2" height="247.2" width="395.52"><g><svg></svg></g><g><svg viewBox="0 0 395.52 247.2" height="247.2" width="395.52"><g></g><g transform="matrix(1,0,0,1,90.39331837604178,67.97999999999999)"><svg viewBox="0 0 214.73336324791643 111.24" height="111.24" width="214.73336324791643"><g><svg viewBox="0 0 395.52 204.8943123440177" height="111.24" width="214.73336324791643"><g transform="matrix(1,0,0,1,0,153.67170748750556)"><svg viewBox="0 0 395.52 51.22260485651215" height="51.22260485651215" width="395.52"><g id="SvgjsG3086"><svg viewBox="0 0 395.52 51.22260485651215" height="51.22260485651215" width="395.52" id="SvgjsSvg3085"><g><svg viewBox="0 0 395.52 51.22260485651215" height="51.22260485651215" width="395.52"><g transform="matrix(1,0,0,1,0,0)"><svg width="395.52" viewBox="2.8400001525878906 -36.86000061035156 289.5400085449219 37.5" height="51.22260485651215" data-palette-color="url(#7b08ce6d-7789-47f9-99b3-6d5cdb2a9872)"><path d="M28.55-27.27L24.29-27.27Q23.97-29.97 21.7-31.46 19.42-32.95 16.12-32.95L16.12-32.95Q13.71-32.95 11.91-32.17 10.1-31.39 9.1-30.02 8.1-28.66 8.1-26.92L8.1-26.92Q8.1-25.46 8.8-24.42 9.5-23.38 10.6-22.7 11.7-22.02 12.91-21.58 14.12-21.15 15.13-20.88L15.13-20.88 18.82-19.89Q20.24-19.51 21.99-18.86 23.74-18.2 25.35-17.07 26.95-15.94 28-14.19 29.05-12.43 29.05-9.87L29.05-9.87Q29.05-6.92 27.51-4.55 25.98-2.17 23.04-0.76 20.1 0.64 15.91 0.64L15.91 0.64Q12 0.64 9.15-0.62 6.3-1.88 4.68-4.14 3.05-6.39 2.84-9.38L2.84-9.38 7.39-9.38Q7.56-7.32 8.78-5.97 10-4.63 11.87-3.99 13.74-3.34 15.91-3.34L15.91-3.34Q18.43-3.34 20.44-4.16 22.44-4.99 23.62-6.47 24.79-7.95 24.79-9.94L24.79-9.94Q24.79-11.75 23.77-12.89 22.76-14.03 21.11-14.74 19.46-15.45 17.54-15.98L17.54-15.98 13.07-17.26Q8.81-18.48 6.32-20.76 3.84-23.03 3.84-26.7L3.84-26.7Q3.84-29.76 5.5-32.04 7.16-34.32 9.97-35.59 12.78-36.86 16.26-36.86L16.26-36.86Q19.78-36.86 22.51-35.61 25.25-34.36 26.86-32.19 28.46-30.02 28.55-27.27L28.55-27.27ZM52.91-11.15L52.91-11.15 52.91-27.27 57.1-27.27 57.1 0 52.91 0 52.91-4.62 52.63-4.62Q51.67-2.54 49.64-1.09 47.62 0.36 44.53 0.36L44.53 0.36Q41.97 0.36 39.98-0.77 37.99-1.9 36.86-4.18 35.72-6.46 35.72-9.94L35.72-9.94 35.72-27.27 39.91-27.27 39.91-10.23Q39.91-7.24 41.59-5.47 43.27-3.69 45.88-3.69L45.88-3.69Q47.44-3.69 49.07-4.49 50.69-5.29 51.8-6.94 52.91-8.59 52.91-11.15ZM68.96 0L64.77 0 64.77-27.27 68.82-27.27 68.82-23.01 69.17-23.01Q70.02-25.2 71.92-26.41 73.82-27.63 76.49-27.63L76.49-27.63Q79.19-27.63 80.99-26.41 82.79-25.2 83.8-23.01L83.8-23.01 84.09-23.01Q85.13-25.12 87.23-26.38 89.32-27.63 92.25-27.63L92.25-27.63Q95.91-27.63 98.24-25.35 100.56-23.06 100.56-18.25L100.56-18.25 100.56 0 96.37 0 96.37-18.25Q96.37-21.27 94.72-22.57 93.07-23.86 90.83-23.86L90.83-23.86Q87.96-23.86 86.38-22.13 84.8-20.4 84.8-17.76L84.8-17.76 84.8 0 80.53 0 80.53-18.68Q80.53-21 79.03-22.43 77.52-23.86 75.14-23.86L75.14-23.86Q73.5-23.86 72.09-22.99 70.68-22.12 69.82-20.59 68.96-19.05 68.96-17.05L68.96-17.05 68.96 0ZM112.42 0L108.23 0 108.23-27.27 112.28-27.27 112.28-23.01 112.63-23.01Q113.49-25.2 115.39-26.41 117.29-27.63 119.95-27.63L119.95-27.63Q122.65-27.63 124.45-26.41 126.25-25.2 127.27-23.01L127.27-23.01 127.55-23.01Q128.6-25.12 130.69-26.38 132.79-27.63 135.72-27.63L135.72-27.63Q139.37-27.63 141.7-25.35 144.03-23.06 144.03-18.25L144.03-18.25 144.03 0 139.84 0 139.84-18.25Q139.84-21.27 138.18-22.57 136.53-23.86 134.3-23.86L134.3-23.86Q131.42-23.86 129.84-22.13 128.26-20.4 128.26-17.76L128.26-17.76 128.26 0 124 0 124-18.68Q124-21 122.49-22.43 120.98-23.86 118.6-23.86L118.6-23.86Q116.97-23.86 115.56-22.99 114.14-22.12 113.28-20.59 112.42-19.05 112.42-17.05L112.42-17.05 112.42 0ZM159.72 0.64L159.72 0.64Q157.13 0.64 155.01-0.35 152.9-1.33 151.66-3.2 150.42-5.08 150.42-7.74L150.42-7.74Q150.42-10.09 151.34-11.55 152.26-13.01 153.81-13.85 155.35-14.68 157.23-15.1 159.1-15.52 161-15.77L161-15.77Q163.48-16.09 165.04-16.26 166.59-16.42 167.31-16.83 168.03-17.24 168.03-18.25L168.03-18.25 168.03-18.39Q168.03-21.02 166.6-22.48 165.17-23.93 162.28-23.93L162.28-23.93Q159.28-23.93 157.57-22.62 155.87-21.31 155.17-19.82L155.17-19.82 151.2-21.24Q152.26-23.72 154.05-25.12 155.83-26.51 157.95-27.07 160.08-27.63 162.13-27.63L162.13-27.63Q163.45-27.63 165.16-27.32 166.88-27.01 168.48-26.05 170.09-25.09 171.15-23.15 172.22-21.22 172.22-17.97L172.22-17.97 172.22 0 168.03 0 168.03-3.69 167.82-3.69Q167.39-2.81 166.4-1.79 165.4-0.78 163.75-0.07 162.1 0.64 159.72 0.64ZM160.36-3.13L160.36-3.13Q162.85-3.13 164.56-4.1 166.27-5.08 167.15-6.62 168.03-8.17 168.03-9.87L168.03-9.87 168.03-13.71Q167.76-13.39 166.87-13.13 165.97-12.87 164.81-12.69 163.64-12.5 162.55-12.37 161.46-12.23 160.79-12.14L160.79-12.14Q159.15-11.93 157.74-11.46 156.33-10.99 155.47-10.06 154.61-9.13 154.61-7.53L154.61-7.53Q154.61-5.34 156.23-4.23 157.86-3.13 160.36-3.13ZM184.08 0L179.89 0 179.89-27.27 183.94-27.27 183.94-23.15 184.22-23.15Q184.97-25.18 186.92-26.44 188.87-27.7 191.32-27.7L191.32-27.7Q191.78-27.7 192.48-27.68 193.17-27.66 193.52-27.63L193.52-27.63 193.52-23.37Q193.31-23.42 192.56-23.54 191.8-23.65 190.97-23.65L190.97-23.65Q188.98-23.65 187.43-22.82 185.87-22 184.98-20.55 184.08-19.11 184.08-17.26L184.08-17.26 184.08 0ZM209.43-30.61L198.56 0 193.95 0 207.3-36.36 211.85-36.36 225.2 0 220.58 0 209.72-30.61 209.43-30.61ZM200.27-10.3L200.27-14.2 218.88-14.2 218.88-10.3 200.27-10.3ZM230.88-36.36L235.28-36.36 235.28 0 230.88 0 230.88-36.36ZM262.84-21.16L262.84-21.16 259.07-20.1Q258.72-21.04 258.03-21.94 257.35-22.83 256.18-23.42 255-24.01 253.18-24.01L253.18-24.01Q250.67-24.01 249.01-22.86 247.35-21.72 247.35-19.96L247.35-19.96Q247.35-18.39 248.49-17.49 249.62-16.58 252.04-15.98L252.04-15.98 256.09-14.99Q259.75-14.1 261.54-12.28 263.33-10.46 263.33-7.6L263.33-7.6Q263.33-5.26 261.99-3.41 260.65-1.56 258.25-0.5 255.86 0.57 252.68 0.57L252.68 0.57Q248.51 0.57 245.77-1.24 243.04-3.05 242.31-6.53L242.31-6.53 246.29-7.53Q246.86-5.33 248.44-4.23 250.03-3.13 252.61-3.13L252.61-3.13Q255.54-3.13 257.27-4.38 259-5.63 259-7.39L259-7.39Q259-8.81 258.01-9.77 257.01-10.74 254.95-11.22L254.95-11.22 250.41-12.29Q246.66-13.17 244.91-15.05 243.16-16.92 243.16-19.74L243.16-19.74Q243.16-22.05 244.47-23.83 245.77-25.6 248.04-26.62 250.3-27.63 253.18-27.63L253.18-27.63Q257.22-27.63 259.54-25.85 261.86-24.08 262.84-21.16ZM281.09 0.57L281.09 0.57Q277.14 0.57 274.29-1.18 271.44-2.93 269.91-6.08 268.37-9.23 268.37-13.42L268.37-13.42Q268.37-17.61 269.91-20.82 271.44-24.02 274.21-25.83 276.97-27.63 280.66-27.63L280.66-27.63Q282.79-27.63 284.87-26.92 286.94-26.21 288.65-24.62 290.35-23.03 291.37-20.42 292.38-17.81 292.38-13.99L292.38-13.99 292.38-12.22 271.36-12.22 271.36-15.84 288.12-15.84Q288.12-18.15 287.2-19.96 286.29-21.77 284.61-22.82 282.93-23.86 280.66-23.86L280.66-23.86Q278.16-23.86 276.34-22.63 274.52-21.4 273.54-19.42 272.56-17.45 272.56-15.2L272.56-15.2 272.56-12.78Q272.56-9.69 273.64-7.56 274.71-5.42 276.63-4.31 278.55-3.2 281.09-3.2L281.09-3.2Q282.74-3.2 284.08-3.67 285.42-4.14 286.39-5.09 287.37-6.04 287.9-7.46L287.9-7.46 291.95-6.32Q291.31-4.26 289.8-2.71 288.29-1.15 286.07-0.29 283.86 0.57 281.09 0.57Z" opacity="1" transform="matrix(1,0,0,1,0,0)" fill="white" class="wordmark-text-0" id="SvgjsPath3084"></path></svg></g></svg></g></svg></g></svg></g><g transform="matrix(1,0,0,1,140.95343882716898,0)"><svg viewBox="0 0 113.613122345662 141.5792798233996" height="141.5792798233996" width="113.613122345662"><g><svg xmlns="http://www.w3.org/2000/svg" xmlns:xlink="http://www.w3.org/1999/xlink" version="1.1" x="0" y="0" viewBox="17 12 65.00006866455078 81" enable-background="new 0 0 100 100" xml:space="preserve" height="141.5792798233996" width="113.613122345662" class="icon-icon-0" data-fill-palette-color="accent" id="SvgjsSvg3083"></svg></g></svg></g><g></g></svg></g></svg></g></svg></g><defs><mask></mask></defs></svg></g></mask><linearGradient x1="0" x2="1" y1="0.5" y2="0.5" id="7b08ce6d-7789-47f9-99b3-6d5cdb2a9872"><stop stop-color="#ffa62e" offset="0"></stop><stop stop-color="#f71b3d" offset="1"></stop></linearGradient><rect width="395.5199890136719" height="247.1999969482422" fill="url(#7b08ce6d-7789-47f9-99b3-6d5cdb2a9872)" mask="url(#2c616563-7b09-4d02-9a94-42ecc2623ca3)" data-fill-palette-color="primary"></rect><mask id="e9b737eb-91f9-4571-b21c-846321568c25"><g id="SvgjsG3096"><svg viewBox="0 0 395.52 247.2" height="247.2" width="395.52"><g><svg></svg></g><g><svg viewBox="0 0 395.52 247.2" height="247.2" width="395.52"><g></g><g transform="matrix(1,0,0,1,90.39331837604178,67.97999999999999)"><svg viewBox="0 0 214.73336324791643 111.24" height="111.24" width="214.73336324791643"><g><svg viewBox="0 0 395.52 204.8943123440177" height="111.24" width="214.73336324791643"><g transform="matrix(1,0,0,1,0,153.67170748750556)"><svg viewBox="0 0 395.52 51.22260485651215" height="51.22260485651215" width="395.52"><g id="SvgjsG3095"><svg viewBox="0 0 395.52 51.22260485651215" height="51.22260485651215" width="395.52" id="SvgjsSvg3094"><g><svg viewBox="0 0 395.52 51.22260485651215" height="51.22260485651215" width="395.52"><g transform="matrix(1,0,0,1,0,0)"><svg width="395.52" viewBox="2.8400001525878906 -36.86000061035156 289.5400085449219 37.5" height="51.22260485651215" data-palette-color="url(#7b08ce6d-7789-47f9-99b3-6d5cdb2a9872)"></svg></g></svg></g></svg></g></svg></g><g transform="matrix(1,0,0,1,140.95343882716898,0)"><svg viewBox="0 0 113.613122345662 141.5792798233996" height="141.5792798233996" width="113.613122345662"><g><svg xmlns="http://www.w3.org/2000/svg" xmlns:xlink="http://www.w3.org/1999/xlink" version="1.1" x="0" y="0" viewBox="17 12 65.00006866455078 81" enable-background="new 0 0 100 100" xml:space="preserve" height="141.5792798233996" width="113.613122345662" class="icon-icon-0" data-fill-palette-color="accent" id="SvgjsSvg3093"><path d="M81.403 13.897C80.674 12.718 79.386 12 78 12H21c-2.209 0-4 1.791-4 4s1.791 4 4 4h50.528l-2 4H28c-1.386 0-2.674 0.718-3.403 1.897-0.729 1.179-0.795 2.651-0.175 3.892l6 12C31.1 43.144 32.485 44 34 44h26.528l-2 4H40c-1.386 0-2.674 0.718-3.403 1.897-0.729 1.179-0.795 2.651-0.175 3.892l6 12C43.1 67.144 44.485 68 46 68h3.202l-1.699 3.058C47.173 71.651 47 72.32 47 73v5.493h-4.376L50.999 93l8.377-14.507H55v-4.457l4.497-8.094c0.688-1.238 0.669-2.749-0.049-3.971S57.417 60 56 60h-7.528l-2-4H61c1.515 0 2.9-0.856 3.578-2.211l6-12c0.62-1.24 0.554-2.713-0.175-3.892C69.674 36.718 68.386 36 67 36H36.472l-2-4H72c1.515 0 2.9-0.856 3.578-2.211l6-12C82.198 16.549 82.131 15.076 81.403 13.897z" fill="white"></path></svg></g></svg></g><g></g></svg></g></svg></g></svg></g><defs><mask></mask></defs><mask><g id="SvgjsG3092"><svg viewBox="0 0 395.52 247.2" height="247.2" width="395.52"><g><svg></svg></g><g><svg viewBox="0 0 395.52 247.2" height="247.2" width="395.52"><g></g><g transform="matrix(1,0,0,1,90.39331837604178,67.97999999999999)"><svg viewBox="0 0 214.73336324791643 111.24" height="111.24" width="214.73336324791643"><g><svg viewBox="0 0 395.52 204.8943123440177" height="111.24" width="214.73336324791643"><g transform="matrix(1,0,0,1,0,153.67170748750556)"><svg viewBox="0 0 395.52 51.22260485651215" height="51.22260485651215" width="395.52"><g id="SvgjsG3091"><svg viewBox="0 0 395.52 51.22260485651215" height="51.22260485651215" width="395.52" id="SvgjsSvg3090"><g><svg viewBox="0 0 395.52 51.22260485651215" height="51.22260485651215" width="395.52"><g transform="matrix(1,0,0,1,0,0)"><svg width="395.52" viewBox="2.8400001525878906 -36.86000061035156 289.5400085449219 37.5" height="51.22260485651215" data-palette-color="url(#7b08ce6d-7789-47f9-99b3-6d5cdb2a9872)"></svg></g></svg></g></svg></g></svg></g><g transform="matrix(1,0,0,1,140.95343882716898,0)"><svg viewBox="0 0 113.613122345662 141.5792798233996" height="141.5792798233996" width="113.613122345662"><g><svg xmlns="http://www.w3.org/2000/svg" xmlns:xlink="http://www.w3.org/1999/xlink" version="1.1" x="0" y="0" viewBox="17 12 65.00006866455078 81" enable-background="new 0 0 100 100" xml:space="preserve" height="141.5792798233996" width="113.613122345662" class="icon-icon-0" data-fill-palette-color="accent" id="SvgjsSvg3088"></svg></g></svg></g><g></g></svg></g></svg></g></svg></g><defs><mask></mask></defs></svg></g></mask></svg></g></mask><linearGradient x1="0.054" x2="0.941" y1="0.5" y2="0.5" id="74a0860c-f4ed-48e0-9134-4a23cb0338ce"><stop stop-color="#0f3054" offset="0"></stop><stop stop-color="#3b8dcb" offset="0.498"></stop><stop stop-color="#0f3054" offset="1"></stop></linearGradient><rect width="395.5199890136719" height="247.1999969482422" fill="url(#74a0860c-f4ed-48e0-9134-4a23cb0338ce)" mask="url(#e9b737eb-91f9-4571-b21c-846321568c25)" data-fill-palette-color="accent"></rect><mask id="f31ff3ad-b7e1-4304-bc0a-777d1173b4aa"><g id="SvgjsG3113"><svg viewBox="0 0 395.52 247.2" height="247.2" width="395.52"><g><svg></svg></g><g><svg viewBox="0 0 395.52 247.2" height="247.2" width="395.52"><g><path xmlns="http://www.w3.org/2000/svg" d="M55.039 247.2l26.403-45.732 1.896 0-25.403 44h279.65l-25.403-44 1.896 0 26.403 45.732zM197.76 0l26.403 45.732-1.896 0-24.507-42.448-24.507 42.448-1.896 0z" fill="white" fill-rule="nonzero" stroke="none" stroke-width="1" stroke-linecap="butt" stroke-linejoin="miter" stroke-miterlimit="10" stroke-dasharray="" stroke-dashoffset="0" font-family="none" font-weight="none" font-size="none" text-anchor="none" style="mix-blend-mode: normal"></path></g><g transform="matrix(1,0,0,1,90.39331837604178,67.97999999999999)"><svg viewBox="0 0 214.73336324791643 111.24" height="111.24" width="214.73336324791643"><g><svg viewBox="0 0 395.52 204.8943123440177" height="111.24" width="214.73336324791643"><g transform="matrix(1,0,0,1,0,153.67170748750556)"><svg viewBox="0 0 395.52 51.22260485651215" height="51.22260485651215" width="395.52"><g id="SvgjsG3112"><svg viewBox="0 0 395.52 51.22260485651215" height="51.22260485651215" width="395.52" id="SvgjsSvg3111"><g><svg viewBox="0 0 395.52 51.22260485651215" height="51.22260485651215" width="395.52"><g transform="matrix(1,0,0,1,0,0)"><svg width="395.52" viewBox="2.8400001525878906 -36.86000061035156 289.5400085449219 37.5" height="51.22260485651215" data-palette-color="url(#7b08ce6d-7789-47f9-99b3-6d5cdb2a9872)"></svg></g></svg></g></svg></g></svg></g><g transform="matrix(1,0,0,1,140.95343882716898,0)"><svg viewBox="0 0 113.613122345662 141.5792798233996" height="141.5792798233996" width="113.613122345662"><g><svg xmlns="http://www.w3.org/2000/svg" xmlns:xlink="http://www.w3.org/1999/xlink" version="1.1" x="0" y="0" viewBox="17 12 65.00006866455078 81" enable-background="new 0 0 100 100" xml:space="preserve" height="141.5792798233996" width="113.613122345662" class="icon-icon-0" data-fill-palette-color="accent" id="SvgjsSvg3110"></svg></g></svg></g><g></g></svg></g></svg></g></svg></g><defs><mask></mask></defs><mask><g id="SvgjsG3109"><svg viewBox="0 0 395.52 247.2" height="247.2" width="395.52"><g><svg></svg></g><g><svg viewBox="0 0 395.52 247.2" height="247.2" width="395.52"><g></g><g transform="matrix(1,0,0,1,90.39331837604178,67.97999999999999)"><svg viewBox="0 0 214.73336324791643 111.24" height="111.24" width="214.73336324791643"><g><svg viewBox="0 0 395.52 204.8943123440177" height="111.24" width="214.73336324791643"><g transform="matrix(1,0,0,1,0,153.67170748750556)"><svg viewBox="0 0 395.52 51.22260485651215" height="51.22260485651215" width="395.52"><g id="SvgjsG3108"><svg viewBox="0 0 395.52 51.22260485651215" height="51.22260485651215" width="395.52" id="SvgjsSvg3107"><g><svg viewBox="0 0 395.52 51.22260485651215" height="51.22260485651215" width="395.52"><g transform="matrix(1,0,0,1,0,0)"><svg width="395.52" viewBox="2.8400001525878906 -36.86000061035156 289.5400085449219 37.5" height="51.22260485651215" data-palette-color="url(#7b08ce6d-7789-47f9-99b3-6d5cdb2a9872)"></svg></g></svg></g></svg></g></svg></g><g transform="matrix(1,0,0,1,140.95343882716898,0)"><svg viewBox="0 0 113.613122345662 141.5792798233996" height="141.5792798233996" width="113.613122345662"><g><svg xmlns="http://www.w3.org/2000/svg" xmlns:xlink="http://www.w3.org/1999/xlink" version="1.1" x="0" y="0" viewBox="17 12 65.00006866455078 81" enable-background="new 0 0 100 100" xml:space="preserve" height="141.5792798233996" width="113.613122345662" class="icon-icon-0" data-fill-palette-color="accent" id="SvgjsSvg3105"></svg></g></svg></g><g></g></svg></g></svg></g></svg></g><defs><mask></mask></defs></svg></g></mask><mask><g id="SvgjsG3104"><svg viewBox="0 0 395.52 247.2" height="247.2" width="395.52"><g><svg></svg></g><g><svg viewBox="0 0 395.52 247.2" height="247.2" width="395.52"><g></g><g transform="matrix(1,0,0,1,90.39331837604178,67.97999999999999)"><svg viewBox="0 0 214.73336324791643 111.24" height="111.24" width="214.73336324791643"><g><svg viewBox="0 0 395.52 204.8943123440177" height="111.24" width="214.73336324791643"><g transform="matrix(1,0,0,1,0,153.67170748750556)"><svg viewBox="0 0 395.52 51.22260485651215" height="51.22260485651215" width="395.52"><g id="SvgjsG3103"><svg viewBox="0 0 395.52 51.22260485651215" height="51.22260485651215" width="395.52" id="SvgjsSvg3102"><g><svg viewBox="0 0 395.52 51.22260485651215" height="51.22260485651215" width="395.52"><g transform="matrix(1,0,0,1,0,0)"><svg width="395.52" viewBox="2.8400001525878906 -36.86000061035156 289.5400085449219 37.5" height="51.22260485651215" data-palette-color="url(#7b08ce6d-7789-47f9-99b3-6d5cdb2a9872)"></svg></g></svg></g></svg></g></svg></g><g transform="matrix(1,0,0,1,140.95343882716898,0)"><svg viewBox="0 0 113.613122345662 141.5792798233996" height="141.5792798233996" width="113.613122345662"><g><svg xmlns="http://www.w3.org/2000/svg" xmlns:xlink="http://www.w3.org/1999/xlink" version="1.1" x="0" y="0" viewBox="17 12 65.00006866455078 81" enable-background="new 0 0 100 100" xml:space="preserve" height="141.5792798233996" width="113.613122345662" class="icon-icon-0" data-fill-palette-color="accent" id="SvgjsSvg3101"></svg></g></svg></g><g></g></svg></g></svg></g></svg></g><defs><mask></mask></defs><mask><g id="SvgjsG3100"><svg viewBox="0 0 395.52 247.2" height="247.2" width="395.52"><g><svg></svg></g><g><svg viewBox="0 0 395.52 247.2" height="247.2" width="395.52"><g></g><g transform="matrix(1,0,0,1,90.39331837604178,67.97999999999999)"><svg viewBox="0 0 214.73336324791643 111.24" height="111.24" width="214.73336324791643"><g><svg viewBox="0 0 395.52 204.8943123440177" height="111.24" width="214.73336324791643"><g transform="matrix(1,0,0,1,0,153.67170748750556)"><svg viewBox="0 0 395.52 51.22260485651215" height="51.22260485651215" width="395.52"><g id="SvgjsG3099"><svg viewBox="0 0 395.52 51.22260485651215" height="51.22260485651215" width="395.52" id="SvgjsSvg3098"><g><svg viewBox="0 0 395.52 51.22260485651215" height="51.22260485651215" width="395.52"><g transform="matrix(1,0,0,1,0,0)"><svg width="395.52" viewBox="2.8400001525878906 -36.86000061035156 289.5400085449219 37.5" height="51.22260485651215" data-palette-color="url(#7b08ce6d-7789-47f9-99b3-6d5cdb2a9872)"></svg></g></svg></g></svg></g></svg></g><g transform="matrix(1,0,0,1,140.95343882716898,0)"><svg viewBox="0 0 113.613122345662 141.5792798233996" height="141.5792798233996" width="113.613122345662"><g><svg xmlns="http://www.w3.org/2000/svg" xmlns:xlink="http://www.w3.org/1999/xlink" version="1.1" x="0" y="0" viewBox="17 12 65.00006866455078 81" enable-background="new 0 0 100 100" xml:space="preserve" height="141.5792798233996" width="113.613122345662" class="icon-icon-0" data-fill-palette-color="accent" id="SvgjsSvg3097"></svg></g></svg></g><g></g></svg></g></svg></g></svg></g><defs><mask></mask></defs></svg></g></mask></svg></g></mask></svg></g></mask><linearGradient x1="0.054" x2="0.941" y1="0.5" y2="0.5" id="67ae624f-97d5-41fc-be67-b6873bfac05b"><stop stop-color="#0f3054" offset="0"></stop><stop stop-color="#3b8dcb" offset="0.498"></stop><stop stop-color="#0f3054" offset="1"></stop></linearGradient></svg><rect width="395.52" height="247.2" fill="none" stroke="none" visibility="hidden"></rect></g></svg></g></svg>