<svg xmlns="http://www.w3.org/2000/svg" version="1.1" xmlns:xlink="http://www.w3.org/1999/xlink" xmlns:svgjs="http://svgjs.dev/svgjs" width="1000" height="207" viewBox="0 0 1000 207"><g transform="matrix(1,0,0,1,-0.6060606060606233,0.32681562842392964)"><svg viewBox="0 0 396 82" data-background-color="#ffffff" preserveAspectRatio="xMidYMid meet" height="207" width="1000" xmlns="http://www.w3.org/2000/svg" xmlns:xlink="http://www.w3.org/1999/xlink"><g id="tight-bounds" transform="matrix(1,0,0,1,0.2400000000000091,-0.12946319580078125)"><svg viewBox="0 0 395.52 82.25892307095674" height="82.25892307095674" width="395.52"><g><svg viewBox="0 0 488.6459937738082 101.62695492205424" height="82.25892307095674" width="395.52"><g transform="matrix(1,0,0,1,0,26.30142851697159)"><svg viewBox="0 0 395.52 49.02409788811106" height="49.02409788811106" width="395.52"><g id="textblocktransform"><svg viewBox="0 0 395.52 49.02409788811106" height="49.02409788811106" width="395.52" id="textblock"><g><svg viewBox="0 0 395.52 49.02409788811106" height="49.02409788811106" width="395.52"><g transform="matrix(1,0,0,1,0,0)"><svg width="395.52" viewBox="2.2699999809265137 -36.86000061035156 301.80999755859375 37.40999984741211" height="49.02409788811106" data-palette-color="url(#abd23a16-f53f-4efe-936c-5d8b76b24387)"></svg></g></svg></g></svg></g></svg></g><g transform="matrix(1,0,0,1,407.0934129330337,0)"><svg viewBox="0 0 81.55258084077448 101.62695492205424" height="101.62695492205424" width="81.55258084077448"><g><svg xmlns="http://www.w3.org/2000/svg" xmlns:xlink="http://www.w3.org/1999/xlink" version="1.1" x="0" y="0" viewBox="17 12 65.00006866455078 81" enable-background="new 0 0 100 100" xml:space="preserve" height="101.62695492205424" width="81.55258084077448" class="icon-icon-0" data-fill-palette-color="accent" id="icon-0"></svg></g></svg></g></svg></g><defs></defs><mask id="42cb73ba-5ec9-456e-a29f-4cab600b572e"><g id="SvgjsG3524"><svg viewBox="0 0 395.52 82.25892307095674" height="82.25892307095674" width="395.52"><g><svg viewBox="0 0 488.6459937738082 101.62695492205424" height="82.25892307095674" width="395.52"><g transform="matrix(1,0,0,1,0,26.30142851697159)"><svg viewBox="0 0 395.52 49.02409788811106" height="49.02409788811106" width="395.52"><g id="SvgjsG3523"><svg viewBox="0 0 395.52 49.02409788811106" height="49.02409788811106" width="395.52" id="SvgjsSvg3522"><g><svg viewBox="0 0 395.52 49.02409788811106" height="49.02409788811106" width="395.52"><g transform="matrix(1,0,0,1,0,0)"><svg width="395.52" viewBox="2.2699999809265137 -36.86000061035156 301.80999755859375 37.40999984741211" height="49.02409788811106" data-palette-color="url(#abd23a16-f53f-4efe-936c-5d8b76b24387)"><path d="M29.69-26.37L23.35-26.37Q23.1-28.69 21.26-29.99 19.42-31.29 16.5-31.29L16.5-31.29Q14.44-31.29 12.96-30.66 11.49-30.04 10.71-28.98 9.93-27.91 9.91-26.54L9.91-26.54Q9.91-25.41 10.43-24.57 10.96-23.74 11.86-23.16 12.77-22.59 13.87-22.19 14.97-21.8 16.09-21.54L16.09-21.54 19.5-20.69Q21.56-20.21 23.46-19.39 25.37-18.57 26.89-17.33 28.41-16.09 29.3-14.33 30.18-12.57 30.18-10.21L30.18-10.21Q30.18-7.01 28.55-4.59 26.92-2.17 23.84-0.81 20.76 0.55 16.39 0.55L16.39 0.55Q12.14 0.55 9.03-0.76 5.91-2.08 4.16-4.6 2.41-7.12 2.27-10.74L2.27-10.74 8.75-10.74Q8.9-8.84 9.93-7.58 10.96-6.32 12.62-5.7 14.28-5.08 16.34-5.08L16.34-5.08Q18.48-5.08 20.11-5.73 21.73-6.37 22.66-7.54 23.58-8.7 23.6-10.26L23.6-10.26Q23.58-11.68 22.76-12.62 21.95-13.55 20.48-14.18 19.02-14.81 17.06-15.31L17.06-15.31 12.93-16.37Q8.43-17.52 5.83-19.88 3.23-22.23 3.23-26.14L3.23-26.14Q3.23-29.35 4.98-31.76 6.73-34.18 9.75-35.52 12.77-36.86 16.58-36.86L16.58-36.86Q20.45-36.86 23.38-35.52 26.3-34.18 27.97-31.81 29.63-29.44 29.69-26.37L29.69-26.37ZM53.14-11.47L53.14-11.47 53.14-27.27 59.57-27.27 59.57 0 53.34 0 53.34-4.85 53.05-4.85Q52.13-2.56 50.02-1.1 47.92 0.36 44.85 0.36L44.85 0.36Q42.17 0.36 40.12-0.84 38.07-2.04 36.91-4.34 35.76-6.64 35.76-9.91L35.76-9.91 35.76-27.27 42.19-27.27 42.19-10.9Q42.19-8.31 43.61-6.78 45.03-5.26 47.33-5.26L47.33-5.26Q48.75-5.26 50.09-5.95 51.42-6.64 52.28-8.02 53.14-9.39 53.14-11.47ZM72.6 0L66.17 0 66.17-27.27 72.31-27.27 72.31-22.64 72.63-22.64Q73.49-24.98 75.46-26.31 77.43-27.63 80.16-27.63L80.16-27.63Q82.93-27.63 84.84-26.29 86.75-24.95 87.53-22.64L87.53-22.64 87.81-22.64Q88.72-24.91 90.88-26.27 93.03-27.63 96-27.63L96-27.63Q99.76-27.63 102.14-25.25 104.52-22.87 104.52-18.31L104.52-18.31 104.52 0 98.08 0 98.08-17.31Q98.08-19.85 96.73-21.03 95.38-22.21 93.43-22.21L93.43-22.21Q91.1-22.21 89.79-20.77 88.49-19.32 88.49-17.01L88.49-17.01 88.49 0 82.19 0 82.19-17.58Q82.19-19.69 80.92-20.95 79.65-22.21 77.61-22.21L77.61-22.21Q76.22-22.21 75.08-21.51 73.95-20.81 73.27-19.54 72.6-18.27 72.6-16.58L72.6-16.58 72.6 0ZM117.48 0L111.05 0 111.05-27.27 117.2-27.27 117.2-22.64 117.52-22.64Q118.37-24.98 120.34-26.31 122.31-27.63 125.05-27.63L125.05-27.63Q127.82-27.63 129.72-26.29 131.63-24.95 132.41-22.64L132.41-22.64 132.7-22.64Q133.6-24.91 135.76-26.27 137.92-27.63 140.88-27.63L140.88-27.63Q144.65-27.63 147.03-25.25 149.41-22.87 149.41-18.31L149.41-18.31 149.41 0 142.96 0 142.96-17.31Q142.96-19.85 141.61-21.03 140.26-22.21 138.31-22.21L138.31-22.21Q135.98-22.21 134.68-20.77 133.37-19.32 133.37-17.01L133.37-17.01 133.37 0 127.07 0 127.07-17.58Q127.07-19.69 125.8-20.95 124.53-22.21 122.49-22.21L122.49-22.21Q121.1-22.21 119.97-21.51 118.83-20.81 118.16-19.54 117.48-18.27 117.48-16.58L117.48-16.58 117.48 0ZM163.79 0.55L163.79 0.55Q161.19 0.55 159.13-0.38 157.06-1.31 155.86-3.14 154.66-4.97 154.66-7.65L154.66-7.65Q154.66-9.96 155.51-11.47 156.36-12.98 157.84-13.88 159.31-14.79 161.17-15.26 163.02-15.73 165.01-15.94L165.01-15.94Q167.41-16.19 168.9-16.4 170.39-16.6 171.07-17.04 171.76-17.47 171.76-18.39L171.76-18.39 171.76-18.5Q171.76-20.51 170.57-21.61 169.38-22.71 167.14-22.71L167.14-22.71Q164.78-22.71 163.4-21.68 162.03-20.65 161.55-19.25L161.55-19.25 155.55-20.1Q156.26-22.59 157.89-24.26 159.52-25.94 161.89-26.78 164.25-27.63 167.11-27.63L167.11-27.63Q169.08-27.63 171.03-27.17 172.98-26.7 174.6-25.65 176.22-24.59 177.2-22.78 178.19-20.97 178.19-18.25L178.19-18.25 178.19 0 172.01 0 172.01-3.75 171.79-3.75Q171.21-2.61 170.15-1.62 169.1-0.64 167.51-0.04 165.92 0.55 163.79 0.55ZM165.46-4.17L165.46-4.17Q167.39-4.17 168.81-4.94 170.23-5.72 171-7 171.78-8.27 171.78-9.78L171.78-9.78 171.78-13Q171.47-12.75 170.76-12.54 170.04-12.32 169.15-12.16 168.26-12 167.39-11.88 166.52-11.75 165.88-11.67L165.88-11.67Q164.44-11.47 163.31-11.03 162.17-10.58 161.51-9.79 160.86-9 160.86-7.76L160.86-7.76Q160.86-5.98 162.15-5.08 163.45-4.17 165.46-4.17ZM191.09 0L184.66 0 184.66-27.27 190.9-27.27 190.9-22.73 191.18-22.73Q191.93-25.09 193.75-26.38 195.57-27.66 197.91-27.66L197.91-27.66Q198.44-27.66 199.11-27.62 199.77-27.57 200.22-27.49L200.22-27.49 200.22-21.57Q199.81-21.72 198.93-21.83 198.05-21.95 197.24-21.95L197.24-21.95Q195.48-21.95 194.08-21.19 192.69-20.44 191.89-19.11 191.09-17.77 191.09-16.03L191.09-16.03 191.09 0ZM217.15-28.91L207.46 0 200.43 0 213.23-36.36 221.36-36.36 234.18 0 227.15 0 217.44-28.91 217.15-28.91ZM207.69-8.97L207.69-14.26 226.87-14.26 226.87-8.97 207.69-8.97ZM238.97-36.36L245.56-36.36 245.56 0 238.97 0 238.97-36.36ZM273.99-20.06L273.99-20.06 268.13-19.42Q267.88-20.31 267.27-21.09 266.65-21.88 265.62-22.35 264.59-22.83 263.1-22.83L263.1-22.83Q261.1-22.83 259.74-21.96 258.38-21.09 258.4-19.71L258.4-19.71Q258.38-18.52 259.28-17.77 260.17-17.03 262.25-16.55L262.25-16.55 266.9-15.55Q270.77-14.72 272.66-12.91 274.55-11.1 274.57-8.17L274.57-8.17Q274.55-5.59 273.07-3.63 271.59-1.67 268.96-0.57 266.33 0.53 262.92 0.53L262.92 0.53Q257.92 0.53 254.86-1.57 251.81-3.68 251.22-7.44L251.22-7.44 257.49-8.04Q257.92-6.2 259.3-5.26 260.69-4.31 262.91-4.31L262.91-4.31Q265.2-4.31 266.59-5.26 267.98-6.2 267.98-7.58L267.98-7.58Q267.98-8.75 267.09-9.52 266.19-10.28 264.31-10.69L264.31-10.69 259.66-11.67Q255.73-12.48 253.85-14.43 251.97-16.37 251.99-19.35L251.99-19.35Q251.97-21.88 253.36-23.73 254.76-25.59 257.25-26.61 259.75-27.63 263.01-27.63L263.01-27.63Q267.81-27.63 270.57-25.59 273.33-23.54 273.99-20.06ZM291.95 0.53L291.95 0.53Q287.85 0.53 284.88-1.18 281.9-2.89 280.3-6.05 278.71-9.2 278.71-13.48L278.71-13.48Q278.71-17.68 280.31-20.87 281.92-24.06 284.81-25.84 287.71-27.63 291.61-27.63L291.61-27.63Q294.14-27.63 296.38-26.82 298.63-26.01 300.36-24.33 302.09-22.64 303.08-20.04 304.08-17.44 304.08-13.85L304.08-13.85 304.08-11.88 281.72-11.88 281.72-16.21 297.92-16.21Q297.9-18.06 297.12-19.5 296.34-20.95 294.94-21.79 293.55-22.62 291.7-22.62L291.7-22.62Q289.73-22.62 288.24-21.67 286.75-20.72 285.92-19.19 285.1-17.65 285.08-15.82L285.08-15.82 285.08-12.04Q285.08-9.66 285.95-7.96 286.82-6.27 288.38-5.37 289.95-4.47 292.04-4.47L292.04-4.47Q293.44-4.47 294.58-4.87 295.72-5.27 296.55-6.05 297.39-6.84 297.81-7.99L297.81-7.99 303.81-7.32Q303.24-4.94 301.66-3.17 300.07-1.4 297.6-0.44 295.13 0.53 291.95 0.53Z" opacity="1" transform="matrix(1,0,0,1,0,0)" fill="white" class="wordmark-text-0" id="SvgjsPath3521"></path></svg></g></svg></g></svg></g></svg></g><g transform="matrix(1,0,0,1,407.0934129330337,0)"><svg viewBox="0 0 81.55258084077448 101.62695492205424" height="101.62695492205424" width="81.55258084077448"><g><svg xmlns="http://www.w3.org/2000/svg" xmlns:xlink="http://www.w3.org/1999/xlink" version="1.1" x="0" y="0" viewBox="17 12 65.00006866455078 81" enable-background="new 0 0 100 100" xml:space="preserve" height="101.62695492205424" width="81.55258084077448" class="icon-icon-0" data-fill-palette-color="accent" id="SvgjsSvg3520"></svg></g></svg></g></svg></g><defs><mask></mask></defs></svg></g></mask><linearGradient x1="0" x2="1" y1="0.5" y2="0.5" id="abd23a16-f53f-4efe-936c-5d8b76b24387"><stop stop-color="#ffa62e" offset="0"></stop><stop stop-color="#f71b3d" offset="1"></stop></linearGradient><rect width="395.5199890136719" height="82.25892639160156" fill="#ffffff" mask="url(#42cb73ba-5ec9-456e-a29f-4cab600b572e)" data-fill-palette-color="primary"></rect><mask id="1672f55e-5766-4e15-82a9-e4aaa5842bd0"><g id="SvgjsG3533"><svg viewBox="0 0 395.52 82.25892307095674" height="82.25892307095674" width="395.52"><g><svg viewBox="0 0 488.6459937738082 101.62695492205424" height="82.25892307095674" width="395.52"><g transform="matrix(1,0,0,1,0,26.30142851697159)"><svg viewBox="0 0 395.52 49.02409788811106" height="49.02409788811106" width="395.52"><g id="SvgjsG3532"><svg viewBox="0 0 395.52 49.02409788811106" height="49.02409788811106" width="395.52" id="SvgjsSvg3531"><g><svg viewBox="0 0 395.52 49.02409788811106" height="49.02409788811106" width="395.52"><g transform="matrix(1,0,0,1,0,0)"><svg width="395.52" viewBox="2.2699999809265137 -36.86000061035156 301.80999755859375 37.40999984741211" height="49.02409788811106" data-palette-color="url(#abd23a16-f53f-4efe-936c-5d8b76b24387)"></svg></g></svg></g></svg></g></svg></g><g transform="matrix(1,0,0,1,407.0934129330337,0)"><svg viewBox="0 0 81.55258084077448 101.62695492205424" height="101.62695492205424" width="81.55258084077448"><g><svg xmlns="http://www.w3.org/2000/svg" xmlns:xlink="http://www.w3.org/1999/xlink" version="1.1" x="0" y="0" viewBox="17 12 65.00006866455078 81" enable-background="new 0 0 100 100" xml:space="preserve" height="101.62695492205424" width="81.55258084077448" class="icon-icon-0" data-fill-palette-color="accent" id="SvgjsSvg3530"><path d="M81.403 13.897C80.674 12.718 79.386 12 78 12H21c-2.209 0-4 1.791-4 4s1.791 4 4 4h50.528l-2 4H28c-1.386 0-2.674 0.718-3.403 1.897-0.729 1.179-0.795 2.651-0.175 3.892l6 12C31.1 43.144 32.485 44 34 44h26.528l-2 4H40c-1.386 0-2.674 0.718-3.403 1.897-0.729 1.179-0.795 2.651-0.175 3.892l6 12C43.1 67.144 44.485 68 46 68h3.202l-1.699 3.058C47.173 71.651 47 72.32 47 73v5.493h-4.376L50.999 93l8.377-14.507H55v-4.457l4.497-8.094c0.688-1.238 0.669-2.749-0.049-3.971S57.417 60 56 60h-7.528l-2-4H61c1.515 0 2.9-0.856 3.578-2.211l6-12c0.62-1.24 0.554-2.713-0.175-3.892C69.674 36.718 68.386 36 67 36H36.472l-2-4H72c1.515 0 2.9-0.856 3.578-2.211l6-12C82.198 16.549 82.131 15.076 81.403 13.897z" fill="white"></path></svg></g></svg></g></svg></g><defs><mask></mask></defs><mask><g id="SvgjsG3529"><svg viewBox="0 0 395.52 82.25892307095674" height="82.25892307095674" width="395.52"><g><svg viewBox="0 0 488.6459937738082 101.62695492205424" height="82.25892307095674" width="395.52"><g transform="matrix(1,0,0,1,0,26.30142851697159)"><svg viewBox="0 0 395.52 49.02409788811106" height="49.02409788811106" width="395.52"><g id="SvgjsG3528"><svg viewBox="0 0 395.52 49.02409788811106" height="49.02409788811106" width="395.52" id="SvgjsSvg3527"><g><svg viewBox="0 0 395.52 49.02409788811106" height="49.02409788811106" width="395.52"><g transform="matrix(1,0,0,1,0,0)"><svg width="395.52" viewBox="2.2699999809265137 -36.86000061035156 301.80999755859375 37.40999984741211" height="49.02409788811106" data-palette-color="url(#abd23a16-f53f-4efe-936c-5d8b76b24387)"></svg></g></svg></g></svg></g></svg></g><g transform="matrix(1,0,0,1,407.0934129330337,0)"><svg viewBox="0 0 81.55258084077448 101.62695492205424" height="101.62695492205424" width="81.55258084077448"><g><svg xmlns="http://www.w3.org/2000/svg" xmlns:xlink="http://www.w3.org/1999/xlink" version="1.1" x="0" y="0" viewBox="17 12 65.00006866455078 81" enable-background="new 0 0 100 100" xml:space="preserve" height="101.62695492205424" width="81.55258084077448" class="icon-icon-0" data-fill-palette-color="accent" id="SvgjsSvg3525"></svg></g></svg></g></svg></g><defs><mask></mask></defs></svg></g></mask></svg></g></mask><linearGradient x1="0.054" x2="0.941" y1="0.5" y2="0.5" id="b0ce43e2-f2f1-4cbc-8b38-aa5b15067031"><stop stop-color="#0f3054" offset="0"></stop><stop stop-color="#3b8dcb" offset="0.498"></stop><stop stop-color="#0f3054" offset="1"></stop></linearGradient><rect width="395.5199890136719" height="82.25892639160156" fill="#ffffff" mask="url(#1672f55e-5766-4e15-82a9-e4aaa5842bd0)" data-fill-palette-color="accent"></rect></svg><rect width="395.52" height="82.25892307095674" fill="none" stroke="none" visibility="hidden"></rect></g></svg></g></svg>